<svg xmlns="http://www.w3.org/2000/svg" xmlns:xlink="http://www.w3.org/1999/xlink" width="755" zoomAndPan="magnify" viewBox="0 0 567 567.000005" height="755" preserveAspectRatio="xMidYMid meet" version="1.0"><defs><clipPath id="39d8a1515d"><path d="M 0.5 0 L 566.5 0 L 566.5 566 L 0.5 566 Z M 0.5 0 " clip-rule="nonzero"/></clipPath><clipPath id="5f0b8d70d8"><path d="M 38.882812 117 L 249 117 L 249 448 L 38.882812 448 Z M 38.882812 117 " clip-rule="nonzero"/></clipPath><clipPath id="fad00c325f"><path d="M 237 218 L 436 218 L 436 455.261719 L 237 455.261719 Z M 237 218 " clip-rule="nonzero"/></clipPath><clipPath id="a6f3dd341b"><path d="M 447 111 L 527.769531 111 L 527.769531 192 L 447 192 Z M 447 111 " clip-rule="nonzero"/></clipPath></defs><g clip-path="url(#39d8a1515d)"><path fill="#ffffff" d="M 0.5 0 L 566.5 0 L 566.5 573.488281 L 0.5 573.488281 Z M 0.5 0 " fill-opacity="1" fill-rule="nonzero"/><path fill="#ffffff" d="M 0.5 0 L 566.5 0 L 566.5 566 L 0.5 566 Z M 0.5 0 " fill-opacity="1" fill-rule="nonzero"/><path fill="#ffffff" d="M 0.5 0 L 566.5 0 L 566.5 566 L 0.5 566 Z M 0.5 0 " fill-opacity="1" fill-rule="nonzero"/></g><path fill="#1c2b56" d="M 453.773438 224.734375 L 521.9375 224.734375 L 521.9375 447.867188 L 453.773438 447.867188 Z M 453.773438 224.734375 " fill-opacity="1" fill-rule="nonzero"/><g clip-path="url(#5f0b8d70d8)"><path fill="#4a72b7" d="M 209.300781 335.085938 C 209.195312 331.488281 209.253906 327.894531 209.476562 324.304688 C 209.695312 320.714844 210.082031 317.140625 210.628906 313.582031 C 211.175781 310.027344 211.882812 306.503906 212.75 303.011719 C 213.617188 299.519531 214.644531 296.074219 215.824219 292.679688 C 217.007812 289.28125 218.339844 285.945312 219.828125 282.667969 C 221.3125 279.390625 222.945312 276.191406 224.722656 273.0625 C 226.503906 269.9375 228.417969 266.898438 230.472656 263.945312 C 232.527344 260.992188 234.714844 258.140625 237.03125 255.390625 C 234.226562 250.042969 230.890625 245.054688 227.019531 240.421875 C 212.820312 223.535156 191.820312 215.09375 164.007812 215.09375 C 139.492188 215.09375 120.507812 221.9375 107.050781 235.628906 L 107.050781 117.410156 L 38.882812 117.410156 L 38.882812 447.867188 L 107.050781 447.867188 L 107.050781 314.585938 C 107.113281 312.152344 107.398438 309.746094 107.90625 307.363281 C 108.414062 304.984375 109.140625 302.671875 110.082031 300.425781 C 111.019531 298.183594 112.160156 296.042969 113.5 294.011719 C 114.835938 291.980469 116.351562 290.089844 118.042969 288.339844 C 119.722656 286.640625 121.554688 285.128906 123.546875 283.808594 C 125.539062 282.488281 127.644531 281.386719 129.863281 280.503906 C 132.078125 279.621094 134.367188 278.976562 136.71875 278.566406 C 139.070312 278.15625 141.441406 277.988281 143.824219 278.070312 C 146.34375 277.894531 148.851562 277.996094 151.34375 278.382812 C 153.839844 278.765625 156.261719 279.421875 158.609375 280.351562 C 160.957031 281.277344 163.171875 282.453125 165.257812 283.878906 C 167.34375 285.304688 169.242188 286.941406 170.960938 288.792969 C 172.558594 290.792969 173.960938 292.921875 175.171875 295.175781 C 176.382812 297.433594 177.382812 299.777344 178.167969 302.214844 C 178.953125 304.652344 179.515625 307.140625 179.847656 309.679688 C 180.183594 312.214844 180.289062 314.765625 180.160156 317.320312 L 180.160156 447.867188 L 248.296875 447.867188 L 248.296875 424.921875 C 246.882812 423.648438 245.417969 422.472656 244.035156 421.113281 C 241.1875 418.332031 238.488281 415.414062 235.941406 412.355469 C 233.390625 409.296875 231.007812 406.113281 228.789062 402.808594 C 226.574219 399.503906 224.53125 396.089844 222.667969 392.570312 C 220.800781 389.054688 219.125 385.449219 217.632812 381.753906 C 216.144531 378.0625 214.847656 374.304688 213.746094 370.476562 C 212.644531 366.648438 211.742188 362.773438 211.042969 358.855469 C 210.34375 354.933594 209.847656 350.988281 209.558594 347.015625 C 209.265625 343.042969 209.179688 339.066406 209.300781 335.085938 Z M 209.300781 335.085938 " fill-opacity="1" fill-rule="nonzero"/></g><g clip-path="url(#fad00c325f)"><path fill="#ee3d6e" d="M 375.246094 358.925781 C 374.890625 360.15625 374.488281 361.367188 374.03125 362.566406 C 373.578125 363.761719 373.074219 364.9375 372.523438 366.089844 C 371.96875 367.246094 371.371094 368.375 370.722656 369.480469 C 370.078125 370.582031 369.386719 371.660156 368.648438 372.703125 C 367.914062 373.75 367.132812 374.765625 366.3125 375.746094 C 365.492188 376.726562 364.628906 377.671875 363.730469 378.582031 C 362.832031 379.492188 361.894531 380.363281 360.921875 381.191406 C 359.949219 382.023438 358.945312 382.8125 357.90625 383.558594 C 356.867188 384.304688 355.800781 385.007812 354.703125 385.667969 C 353.605469 386.324219 352.484375 386.933594 351.335938 387.5 C 350.1875 388.0625 349.015625 388.578125 347.828125 389.042969 C 346.636719 389.507812 345.425781 389.925781 344.203125 390.289062 C 342.976562 390.652344 341.738281 390.96875 340.484375 391.230469 C 339.234375 391.488281 337.972656 391.699219 336.703125 391.855469 C 335.433594 392.011719 334.160156 392.113281 332.882812 392.164062 C 331.605469 392.210938 330.328125 392.207031 329.050781 392.148438 C 325.628906 392.230469 322.230469 391.96875 318.863281 391.359375 C 315.492188 390.75 312.21875 389.808594 309.039062 388.535156 C 305.859375 387.261719 302.839844 385.683594 299.980469 383.796875 C 297.121094 381.910156 294.480469 379.757812 292.058594 377.335938 C 289.488281 374.664062 287.21875 371.757812 285.246094 368.617188 C 283.277344 365.476562 281.644531 362.171875 280.351562 358.695312 C 279.058594 355.21875 278.132812 351.648438 277.574219 347.984375 C 277.015625 344.316406 276.835938 340.632812 277.03125 336.929688 C 276.820312 333.210938 276.980469 329.503906 277.507812 325.816406 C 278.039062 322.128906 278.929688 318.53125 280.179688 315.019531 C 281.433594 311.511719 283.019531 308.164062 284.941406 304.972656 C 286.867188 301.78125 289.085938 298.8125 291.605469 296.070312 C 293.972656 293.640625 296.570312 291.476562 299.386719 289.585938 C 302.203125 287.691406 305.183594 286.109375 308.328125 284.835938 C 311.476562 283.558594 314.714844 282.621094 318.054688 282.019531 C 321.394531 281.414062 324.761719 281.160156 328.152344 281.253906 C 330.800781 281.125 333.4375 281.234375 336.066406 281.578125 C 338.695312 281.921875 341.273438 282.496094 343.800781 283.300781 C 346.328125 284.105469 348.761719 285.128906 351.105469 286.367188 C 353.449219 287.609375 355.667969 289.046875 357.753906 290.683594 C 361.453125 293.773438 364.605469 297.347656 367.207031 301.410156 C 369.804688 305.46875 371.738281 309.824219 373 314.480469 L 433.996094 296.078125 C 432.648438 290.636719 430.859375 285.34375 428.625 280.203125 C 426.394531 275.058594 423.75 270.140625 420.699219 265.4375 C 417.644531 260.738281 414.222656 256.328125 410.433594 252.199219 C 406.640625 248.074219 402.535156 244.289062 398.113281 240.847656 C 393.046875 236.984375 387.683594 233.582031 382.027344 230.648438 C 376.367188 227.714844 370.5 225.292969 364.421875 223.378906 C 358.34375 221.46875 352.144531 220.09375 345.828125 219.257812 C 339.511719 218.421875 333.171875 218.140625 326.804688 218.40625 C 322.945312 218.3125 319.089844 218.414062 315.242188 218.710938 C 311.394531 219.007812 307.570312 219.496094 303.769531 220.179688 C 299.96875 220.863281 296.214844 221.738281 292.503906 222.800781 C 288.792969 223.863281 285.144531 225.113281 281.558594 226.546875 C 277.976562 227.980469 274.472656 229.589844 271.050781 231.378906 C 267.628906 233.167969 264.304688 235.125 261.078125 237.25 C 257.855469 239.375 254.746094 241.65625 251.753906 244.097656 C 248.757812 246.539062 245.898438 249.125 243.164062 251.855469 C 240.980469 254.007812 239 256.269531 237.03125 258.539062 C 240.9375 266.148438 243.847656 274.121094 245.761719 282.457031 C 247.671875 290.796875 248.527344 299.242188 248.324219 307.796875 L 248.324219 425.308594 C 251.070312 427.746094 253.925781 430.050781 256.886719 432.21875 C 259.847656 434.390625 262.902344 436.417969 266.054688 438.304688 C 269.203125 440.191406 272.4375 441.925781 275.75 443.507812 C 279.058594 445.09375 282.4375 446.515625 285.882812 447.785156 C 289.328125 449.054688 292.824219 450.15625 296.375 451.097656 C 299.921875 452.039062 303.507812 452.8125 307.125 453.417969 C 310.746094 454.027344 314.386719 454.460938 318.046875 454.726562 C 321.710938 454.992188 325.375 455.089844 329.042969 455.011719 C 335.335938 455.238281 341.601562 454.914062 347.835938 454.035156 C 354.070312 453.160156 360.179688 451.746094 366.164062 449.792969 C 372.152344 447.839844 377.921875 445.378906 383.476562 442.410156 C 389.03125 439.441406 394.28125 436.007812 399.234375 432.117188 C 403.632812 428.691406 407.726562 424.933594 411.511719 420.835938 C 415.296875 416.742188 418.726562 412.367188 421.792969 407.707031 C 424.863281 403.050781 427.535156 398.175781 429.808594 393.082031 C 432.078125 387.984375 433.921875 382.738281 435.335938 377.34375 Z M 375.246094 358.925781 " fill-opacity="1" fill-rule="nonzero"/></g><path fill="#1c2b56" d="M 237.03125 258.523438 C 234.71875 261.214844 232.539062 264.007812 230.488281 266.902344 C 228.4375 269.796875 226.523438 272.777344 224.75 275.847656 C 222.972656 278.917969 221.34375 282.066406 219.855469 285.285156 C 218.371094 288.507812 217.035156 291.789062 215.855469 295.136719 C 214.671875 298.480469 213.644531 301.871094 212.773438 305.3125 C 211.90625 308.75 211.195312 312.222656 210.644531 315.730469 C 210.097656 319.234375 209.710938 322.757812 209.484375 326.296875 C 209.261719 329.839844 209.199219 333.382812 209.300781 336.929688 C 209.1875 340.855469 209.28125 344.777344 209.578125 348.695312 C 209.875 352.613281 210.378906 356.507812 211.082031 360.371094 C 211.789062 364.234375 212.691406 368.054688 213.796875 371.824219 C 214.902344 375.59375 216.203125 379.296875 217.695312 382.929688 C 219.1875 386.5625 220.867188 390.109375 222.730469 393.566406 C 224.597656 397.023438 226.636719 400.371094 228.851562 403.613281 C 231.066406 406.859375 233.445312 409.976562 235.988281 412.96875 C 238.53125 415.960938 241.222656 418.8125 244.0625 421.523438 C 245.4375 422.859375 246.910156 424.015625 248.324219 425.273438 L 248.324219 307.78125 C 248.527344 299.230469 247.671875 290.785156 245.761719 282.445312 C 243.847656 274.105469 240.9375 266.132812 237.03125 258.523438 Z M 237.03125 258.523438 " fill-opacity="1" fill-rule="nonzero"/><g clip-path="url(#a6f3dd341b)"><path fill="#1c2b56" d="M 459.601562 179.371094 C 458.675781 178.441406 457.800781 177.472656 456.976562 176.457031 C 456.148438 175.441406 455.371094 174.390625 454.648438 173.300781 C 453.921875 172.210938 453.253906 171.089844 452.640625 169.933594 C 452.023438 168.777344 451.46875 167.59375 450.96875 166.382812 C 450.46875 165.171875 450.03125 163.941406 449.652344 162.6875 C 449.273438 161.433594 448.957031 160.164062 448.703125 158.882812 C 448.449219 157.597656 448.257812 156.304688 448.128906 155 C 448.003906 153.699219 447.9375 152.390625 447.9375 151.082031 C 447.9375 149.773438 448.003906 148.46875 448.128906 147.164062 C 448.257812 145.859375 448.449219 144.566406 448.703125 143.285156 C 448.957031 142 449.273438 140.730469 449.652344 139.476562 C 450.03125 138.222656 450.46875 136.992188 450.96875 135.78125 C 451.46875 134.570312 452.023438 133.386719 452.640625 132.234375 C 453.253906 131.078125 453.921875 129.953125 454.648438 128.863281 C 455.371094 127.773438 456.148438 126.722656 456.976562 125.707031 C 457.800781 124.695312 458.675781 123.722656 459.601562 122.792969 C 461.394531 120.921875 463.363281 119.25 465.5 117.78125 C 467.636719 116.308594 469.902344 115.074219 472.292969 114.066406 C 474.683594 113.0625 477.152344 112.308594 479.695312 111.808594 C 482.238281 111.3125 484.808594 111.074219 487.402344 111.101562 C 490.046875 111.066406 492.667969 111.296875 495.265625 111.789062 C 497.867188 112.285156 500.386719 113.03125 502.835938 114.039062 C 505.28125 115.042969 507.605469 116.28125 509.800781 117.757812 C 512 119.230469 514.027344 120.910156 515.882812 122.792969 C 516.824219 123.714844 517.710938 124.675781 518.554688 125.683594 C 519.398438 126.691406 520.1875 127.742188 520.925781 128.828125 C 521.664062 129.914062 522.34375 131.035156 522.972656 132.191406 C 523.597656 133.34375 524.167969 134.527344 524.675781 135.738281 C 525.183594 136.949219 525.632812 138.183594 526.019531 139.441406 C 526.402344 140.695312 526.726562 141.96875 526.984375 143.257812 C 527.246094 144.542969 527.441406 145.84375 527.570312 147.148438 C 527.703125 148.457031 527.765625 149.769531 527.765625 151.082031 C 527.765625 152.394531 527.703125 153.707031 527.570312 155.015625 C 527.441406 156.324219 527.246094 157.621094 526.984375 158.910156 C 526.726562 160.195312 526.402344 161.46875 526.019531 162.726562 C 525.632812 163.980469 525.183594 165.214844 524.675781 166.425781 C 524.167969 167.636719 523.597656 168.820312 522.972656 169.976562 C 522.34375 171.128906 521.664062 172.25 520.925781 173.335938 C 520.1875 174.425781 519.398438 175.472656 518.554688 176.480469 C 517.710938 177.488281 516.824219 178.449219 515.882812 179.371094 C 514.027344 181.257812 512 182.9375 509.804688 184.410156 C 507.605469 185.886719 505.285156 187.125 502.835938 188.128906 C 500.390625 189.136719 497.867188 189.882812 495.269531 190.378906 C 492.667969 190.871094 490.046875 191.101562 487.402344 191.0625 C 484.808594 191.089844 482.238281 190.855469 479.695312 190.359375 C 477.148438 189.859375 474.679688 189.105469 472.289062 188.101562 C 469.898438 187.09375 467.636719 185.859375 465.496094 184.386719 C 463.359375 182.917969 461.394531 181.246094 459.601562 179.371094 Z M 459.601562 179.371094 " fill-opacity="1" fill-rule="nonzero"/></g><path fill="#a7bab9" d="M 196.222656 140.683594 C 196.34375 144.472656 195.554688 148.0625 193.859375 151.453125 C 192.320312 154.339844 190.195312 156.691406 187.476562 158.511719 C 184.625 160.375 181.535156 161.679688 178.210938 162.421875 C 174.621094 163.261719 170.984375 163.675781 167.300781 163.660156 L 158.546875 163.660156 L 158.546875 191.171875 L 140.941406 191.171875 L 140.941406 118.195312 L 167.734375 118.195312 C 171.5 118.171875 175.222656 118.570312 178.902344 119.382812 C 182.164062 120.082031 185.179688 121.355469 187.957031 123.199219 C 190.570312 124.972656 192.597656 127.265625 194.039062 130.078125 C 195.628906 133.433594 196.355469 136.96875 196.222656 140.683594 Z M 178.621094 140.785156 C 178.679688 139.28125 178.339844 137.871094 177.589844 136.5625 C 176.90625 135.457031 175.992188 134.597656 174.84375 133.984375 C 173.59375 133.339844 172.273438 132.929688 170.878906 132.753906 C 169.359375 132.542969 167.832031 132.441406 166.296875 132.445312 L 158.574219 132.445312 L 158.574219 149.636719 L 165.988281 149.636719 C 167.582031 149.644531 169.164062 149.507812 170.734375 149.226562 C 172.171875 148.976562 173.527344 148.496094 174.800781 147.78125 C 175.984375 147.113281 176.925781 146.195312 177.625 145.03125 C 178.351562 143.707031 178.683594 142.292969 178.621094 140.785156 Z M 178.621094 140.785156 " fill-opacity="1" fill-rule="nonzero"/><path fill="#a7bab9" d="M 206.828125 191.1875 L 206.828125 118.195312 L 255.839844 118.195312 L 255.839844 133.042969 L 223.820312 133.042969 L 223.820312 146.851562 L 254.09375 146.851562 L 254.09375 160.972656 L 223.820312 160.972656 L 223.820312 176.101562 L 257.695312 176.101562 L 257.695312 191.152344 Z M 206.828125 191.1875 " fill-opacity="1" fill-rule="nonzero"/><path fill="#a7bab9" d="M 317.378906 191.1875 L 288.046875 143.460938 L 287.730469 143.460938 L 288.140625 191.1875 L 271.054688 191.1875 L 271.054688 118.195312 L 291.128906 118.195312 L 320.367188 165.820312 L 320.675781 165.820312 L 320.265625 118.195312 L 337.355469 118.195312 L 337.355469 191.171875 Z M 317.378906 191.1875 " fill-opacity="1" fill-rule="nonzero"/><path fill="#a7bab9" d="M 398.726562 191.1875 L 369.378906 143.460938 L 369.042969 143.460938 L 369.445312 191.1875 L 352.359375 191.1875 L 352.359375 118.195312 L 372.476562 118.195312 L 401.714844 165.820312 L 402.023438 165.820312 L 401.609375 118.195312 L 418.695312 118.195312 L 418.695312 191.171875 Z M 398.726562 191.1875 " fill-opacity="1" fill-rule="nonzero"/></svg>