<svg xmlns="http://www.w3.org/2000/svg" xmlns:xlink="http://www.w3.org/1999/xlink" width="944" zoomAndPan="magnify" viewBox="0 0 708.75 567.000005" height="755" preserveAspectRatio="xMidYMid meet" version="1.0"><defs><clipPath id="297b4e0e2b"><path d="M 81.351562 10.085938 L 627.308594 10.085938 L 627.308594 556.046875 L 81.351562 556.046875 Z M 81.351562 10.085938 " clip-rule="nonzero"/></clipPath><clipPath id="4efaefc305"><path d="M 627.308594 283.070312 C 627.308594 433.824219 505.089844 556.042969 354.332031 556.042969 C 203.570312 556.042969 81.351562 433.824219 81.351562 283.070312 C 81.351562 132.304688 203.570312 10.085938 354.332031 10.085938 C 505.09375 10.085938 627.308594 132.304688 627.308594 283.070312 Z M 627.308594 283.070312 " clip-rule="nonzero"/></clipPath><clipPath id="4ca6f8f570"><path d="M 173.371094 160 L 329 160 L 329 405 L 173.371094 405 Z M 173.371094 160 " clip-rule="nonzero"/></clipPath><clipPath id="1017ceab3e"><path d="M 319 235 L 467 235 L 467 410.375 L 319 410.375 Z M 319 235 " clip-rule="nonzero"/></clipPath><clipPath id="cfc21fae78"><path d="M 476 155.734375 L 535.113281 155.734375 L 535.113281 216 L 476 216 Z M 476 155.734375 " clip-rule="nonzero"/></clipPath></defs><g clip-path="url(#297b4e0e2b)"><g clip-path="url(#4efaefc305)"><path fill="#ffffff" d="M 81.351562 10.085938 L 627.308594 10.085938 L 627.308594 556.046875 L 81.351562 556.046875 Z M 81.351562 10.085938 " fill-opacity="1" fill-rule="nonzero"/></g></g><path fill="#1c2b56" d="M 480.359375 239.925781 L 530.796875 239.925781 L 530.796875 404.914062 L 480.359375 404.914062 Z M 480.359375 239.925781 " fill-opacity="1" fill-rule="nonzero"/><g clip-path="url(#4ca6f8f570)"><path fill="#4a72b7" d="M 299.46875 321.523438 C 299.3125 316.191406 299.640625 310.894531 300.449219 305.621094 C 301.261719 300.351562 302.542969 295.199219 304.296875 290.164062 C 306.050781 285.128906 308.246094 280.296875 310.882812 275.660156 C 313.519531 271.027344 316.554688 266.671875 319.984375 262.59375 C 317.910156 258.640625 315.441406 254.953125 312.578125 251.527344 C 302.074219 239.039062 286.535156 232.796875 265.957031 232.796875 C 247.816406 232.796875 233.769531 237.859375 223.8125 247.980469 L 223.8125 160.570312 L 173.371094 160.570312 L 173.371094 404.914062 L 223.8125 404.914062 L 223.8125 306.363281 C 223.855469 304.5625 224.066406 302.785156 224.445312 301.023438 C 224.820312 299.265625 225.359375 297.554688 226.054688 295.894531 C 226.75 294.234375 227.59375 292.652344 228.582031 291.152344 C 229.574219 289.648438 230.695312 288.25 231.945312 286.957031 C 233.1875 285.699219 234.542969 284.582031 236.019531 283.609375 C 237.492188 282.632812 239.046875 281.816406 240.691406 281.164062 C 242.332031 280.511719 244.023438 280.03125 245.761719 279.730469 C 247.503906 279.425781 249.257812 279.304688 251.023438 279.363281 C 252.886719 279.234375 254.738281 279.308594 256.585938 279.59375 C 258.429688 279.878906 260.222656 280.363281 261.960938 281.050781 C 263.699219 281.734375 265.335938 282.605469 266.878906 283.660156 C 268.421875 284.710938 269.828125 285.921875 271.101562 287.292969 C 272.28125 288.773438 273.320312 290.34375 274.21875 292.011719 C 275.113281 293.679688 275.851562 295.414062 276.433594 297.21875 C 277.015625 299.019531 277.429688 300.859375 277.675781 302.734375 C 277.925781 304.613281 278 306.496094 277.90625 308.386719 L 277.90625 404.914062 L 328.324219 404.914062 L 328.324219 387.949219 C 327.273438 387.007812 326.191406 386.136719 325.171875 385.132812 C 323.0625 383.078125 321.066406 380.917969 319.179688 378.65625 C 317.292969 376.394531 315.53125 374.042969 313.890625 371.597656 C 312.25 369.152344 310.738281 366.628906 309.359375 364.027344 C 307.980469 361.425781 306.738281 358.761719 305.632812 356.03125 C 304.53125 353.300781 303.574219 350.519531 302.757812 347.691406 C 301.941406 344.859375 301.277344 341.996094 300.757812 339.097656 C 300.242188 336.199219 299.875 333.28125 299.660156 330.34375 C 299.445312 327.40625 299.378906 324.464844 299.46875 321.523438 Z M 299.46875 321.523438 " fill-opacity="1" fill-rule="nonzero"/></g><g clip-path="url(#1017ceab3e)"><path fill="#ee3d6e" d="M 422.253906 339.148438 C 421.992188 340.058594 421.695312 340.957031 421.359375 341.839844 C 421.023438 342.726562 420.648438 343.59375 420.242188 344.449219 C 419.832031 345.300781 419.386719 346.136719 418.910156 346.953125 C 418.429688 347.769531 417.917969 348.5625 417.375 349.339844 C 416.828125 350.113281 416.253906 350.863281 415.644531 351.585938 C 415.039062 352.3125 414.402344 353.011719 413.734375 353.683594 C 413.070312 354.355469 412.375 355 411.65625 355.613281 C 410.9375 356.230469 410.191406 356.8125 409.425781 357.363281 C 408.65625 357.917969 407.867188 358.4375 407.054688 358.921875 C 406.242188 359.410156 405.414062 359.859375 404.5625 360.277344 C 403.714844 360.695312 402.847656 361.074219 401.96875 361.417969 C 401.085938 361.761719 400.191406 362.070312 399.285156 362.339844 C 398.378906 362.609375 397.460938 362.839844 396.535156 363.035156 C 395.609375 363.226562 394.675781 363.382812 393.738281 363.496094 C 392.796875 363.613281 391.855469 363.6875 390.910156 363.726562 C 389.964844 363.761719 389.019531 363.757812 388.074219 363.714844 C 385.542969 363.777344 383.027344 363.582031 380.535156 363.132812 C 378.042969 362.679688 375.621094 361.984375 373.265625 361.042969 C 370.914062 360.101562 368.679688 358.933594 366.566406 357.539062 C 364.449219 356.144531 362.496094 354.554688 360.703125 352.761719 C 358.800781 350.785156 357.121094 348.636719 355.664062 346.316406 C 354.203125 343.996094 352.996094 341.546875 352.042969 338.980469 C 351.085938 336.410156 350.398438 333.769531 349.988281 331.058594 C 349.574219 328.347656 349.4375 325.625 349.585938 322.886719 C 349.429688 320.132812 349.546875 317.394531 349.9375 314.667969 C 350.332031 311.941406 350.988281 309.28125 351.914062 306.6875 C 352.839844 304.089844 354.015625 301.613281 355.4375 299.253906 C 356.859375 296.894531 358.503906 294.703125 360.367188 292.671875 C 362.121094 290.875 364.039062 289.277344 366.125 287.878906 C 368.210938 286.480469 370.414062 285.308594 372.742188 284.367188 C 375.070312 283.421875 377.46875 282.730469 379.9375 282.28125 C 382.410156 281.835938 384.898438 281.648438 387.410156 281.71875 C 389.367188 281.625 391.320312 281.703125 393.265625 281.957031 C 395.210938 282.210938 397.121094 282.636719 398.988281 283.230469 C 400.859375 283.824219 402.660156 284.582031 404.394531 285.5 C 406.128906 286.417969 407.769531 287.480469 409.3125 288.691406 C 412.050781 290.976562 414.382812 293.617188 416.304688 296.621094 C 418.230469 299.621094 419.660156 302.84375 420.59375 306.285156 L 465.726562 292.679688 C 464.726562 288.65625 463.402344 284.742188 461.753906 280.941406 C 460.101562 277.136719 458.144531 273.5 455.886719 270.023438 C 453.628906 266.550781 451.09375 263.285156 448.292969 260.234375 C 445.488281 257.183594 442.449219 254.386719 439.175781 251.84375 C 435.425781 248.984375 431.457031 246.46875 427.273438 244.300781 C 423.085938 242.132812 418.742188 240.339844 414.246094 238.925781 C 409.75 237.511719 405.164062 236.496094 400.488281 235.878906 C 395.816406 235.261719 391.125 235.050781 386.414062 235.25 C 383.558594 235.179688 380.707031 235.253906 377.859375 235.472656 C 375.007812 235.691406 372.179688 236.054688 369.367188 236.558594 C 366.558594 237.0625 363.777344 237.710938 361.03125 238.496094 C 358.285156 239.28125 355.585938 240.207031 352.933594 241.265625 C 350.28125 242.328125 347.691406 243.519531 345.15625 244.839844 C 342.625 246.164062 340.167969 247.609375 337.78125 249.179688 C 335.394531 250.753906 333.09375 252.441406 330.878906 254.242188 C 328.664062 256.046875 326.546875 257.960938 324.523438 259.980469 C 322.910156 261.570312 321.445312 263.242188 319.984375 264.921875 C 322.878906 270.546875 325.03125 276.441406 326.445312 282.609375 C 327.859375 288.773438 328.492188 295.019531 328.34375 301.34375 L 328.34375 388.234375 C 332.417969 391.847656 336.789062 395.050781 341.460938 397.84375 C 346.132812 400.636719 351.023438 402.972656 356.136719 404.851562 C 361.246094 406.730469 366.484375 408.121094 371.851562 409.019531 C 377.222656 409.917969 382.628906 410.308594 388.070312 410.195312 C 392.726562 410.363281 397.359375 410.125 401.972656 409.476562 C 406.585938 408.828125 411.109375 407.78125 415.535156 406.335938 C 419.964844 404.894531 424.234375 403.074219 428.34375 400.878906 C 432.453125 398.683594 436.339844 396.144531 440.003906 393.265625 C 443.261719 390.734375 446.289062 387.957031 449.089844 384.925781 C 451.890625 381.898438 454.425781 378.664062 456.699219 375.21875 C 458.96875 371.777344 460.945312 368.171875 462.625 364.402344 C 464.308594 360.636719 465.671875 356.757812 466.71875 352.765625 Z M 422.253906 339.148438 " fill-opacity="1" fill-rule="nonzero"/></g><path fill="#1c2b56" d="M 319.984375 264.910156 C 316.5625 268.902344 313.53125 273.171875 310.898438 277.722656 C 308.265625 282.273438 306.070312 287.023438 304.316406 291.980469 C 302.5625 296.9375 301.277344 302.015625 300.464844 307.210938 C 299.648438 312.402344 299.316406 317.628906 299.46875 322.886719 C 299.386719 325.789062 299.453125 328.6875 299.675781 331.585938 C 299.894531 334.484375 300.265625 337.359375 300.785156 340.21875 C 301.308594 343.078125 301.976562 345.898438 302.796875 348.6875 C 303.613281 351.472656 304.574219 354.210938 305.679688 356.898438 C 306.785156 359.585938 308.027344 362.207031 309.40625 364.761719 C 310.785156 367.316406 312.296875 369.796875 313.933594 372.195312 C 315.574219 374.589844 317.335938 376.898438 319.214844 379.109375 C 321.097656 381.324219 323.089844 383.433594 325.191406 385.4375 C 326.207031 386.421875 327.296875 387.277344 328.34375 388.207031 L 328.34375 301.332031 C 328.492188 295.007812 327.859375 288.765625 326.445312 282.597656 C 325.03125 276.433594 322.878906 270.535156 319.984375 264.910156 Z M 319.984375 264.910156 " fill-opacity="1" fill-rule="nonzero"/><g clip-path="url(#cfc21fae78)"><path fill="#1c2b56" d="M 484.671875 206.382812 C 483.988281 205.695312 483.339844 204.980469 482.730469 204.230469 C 482.117188 203.480469 481.542969 202.703125 481.007812 201.894531 C 480.472656 201.089844 479.976562 200.257812 479.519531 199.40625 C 479.066406 198.550781 478.652344 197.675781 478.285156 196.78125 C 477.914062 195.886719 477.589844 194.976562 477.3125 194.046875 C 477.03125 193.121094 476.796875 192.183594 476.609375 191.234375 C 476.421875 190.285156 476.277344 189.328125 476.183594 188.363281 C 476.089844 187.402344 476.042969 186.433594 476.042969 185.46875 C 476.042969 184.5 476.089844 183.53125 476.183594 182.570312 C 476.277344 181.605469 476.421875 180.648438 476.609375 179.699219 C 476.796875 178.75 477.03125 177.8125 477.3125 176.886719 C 477.589844 175.957031 477.914062 175.046875 478.285156 174.152344 C 478.652344 173.257812 479.066406 172.382812 479.519531 171.527344 C 479.976562 170.675781 480.46875 169.84375 481.007812 169.039062 C 481.542969 168.234375 482.117188 167.453125 482.730469 166.703125 C 483.339844 165.957031 483.988281 165.238281 484.671875 164.550781 C 486 163.164062 487.453125 161.929688 489.035156 160.84375 C 490.617188 159.757812 492.292969 158.839844 494.0625 158.097656 C 495.832031 157.355469 497.65625 156.796875 499.539062 156.429688 C 501.421875 156.058594 503.324219 155.886719 505.242188 155.90625 C 507.199219 155.878906 509.140625 156.046875 511.0625 156.414062 C 512.984375 156.777344 514.851562 157.332031 516.664062 158.074219 C 518.472656 158.820312 520.191406 159.734375 521.816406 160.824219 C 523.441406 161.914062 524.941406 163.15625 526.316406 164.550781 C 527.011719 165.230469 527.671875 165.941406 528.292969 166.6875 C 528.917969 167.433594 529.5 168.207031 530.046875 169.011719 C 530.59375 169.816406 531.097656 170.644531 531.5625 171.496094 C 532.023438 172.351562 532.445312 173.226562 532.820312 174.121094 C 533.199219 175.015625 533.53125 175.929688 533.816406 176.859375 C 534.101562 177.785156 534.339844 178.726562 534.53125 179.679688 C 534.722656 180.632812 534.867188 181.59375 534.964844 182.558594 C 535.0625 183.527344 535.109375 184.496094 535.109375 185.46875 C 535.109375 186.4375 535.0625 187.40625 534.964844 188.375 C 534.867188 189.339844 534.722656 190.300781 534.53125 191.253906 C 534.339844 192.207031 534.101562 193.148438 533.816406 194.074219 C 533.53125 195.003906 533.199219 195.917969 532.820312 196.8125 C 532.445312 197.707031 532.023438 198.582031 531.5625 199.4375 C 531.097656 200.289062 530.59375 201.121094 530.046875 201.921875 C 529.5 202.726562 528.917969 203.5 528.292969 204.246094 C 527.671875 204.992188 527.011719 205.703125 526.316406 206.382812 C 524.941406 207.777344 523.441406 209.019531 521.816406 210.109375 C 520.191406 211.203125 518.472656 212.117188 516.664062 212.859375 C 514.851562 213.605469 512.984375 214.15625 511.0625 214.523438 C 509.140625 214.886719 507.199219 215.054688 505.242188 215.027344 C 503.324219 215.050781 501.421875 214.875 499.539062 214.507812 C 497.65625 214.140625 495.828125 213.582031 494.0625 212.839844 C 492.292969 212.09375 490.617188 211.179688 489.035156 210.09375 C 487.453125 209.003906 486 207.769531 484.671875 206.382812 Z M 484.671875 206.382812 " fill-opacity="1" fill-rule="nonzero"/></g><path fill="#a7bab9" d="M 289.792969 177.777344 C 289.882812 180.582031 289.296875 183.234375 288.042969 185.742188 C 286.90625 187.875 285.332031 189.617188 283.320312 190.960938 C 281.210938 192.339844 278.925781 193.304688 276.464844 193.851562 C 273.808594 194.472656 271.117188 194.777344 268.390625 194.769531 L 261.914062 194.769531 L 261.914062 215.109375 L 248.886719 215.109375 L 248.886719 161.148438 L 268.710938 161.148438 C 271.5 161.132812 274.253906 161.425781 276.976562 162.027344 C 279.386719 162.546875 281.621094 163.488281 283.675781 164.851562 C 285.609375 166.160156 287.109375 167.855469 288.175781 169.9375 C 289.351562 172.417969 289.890625 175.03125 289.792969 177.777344 Z M 276.769531 177.855469 C 276.8125 176.742188 276.558594 175.699219 276.007812 174.730469 C 275.5 173.914062 274.820312 173.277344 273.972656 172.824219 C 273.050781 172.347656 272.070312 172.042969 271.039062 171.914062 C 269.914062 171.757812 268.785156 171.683594 267.648438 171.6875 L 261.9375 171.6875 L 261.9375 184.398438 L 267.421875 184.398438 C 268.601562 184.402344 269.773438 184.300781 270.933594 184.09375 C 271.996094 183.910156 273 183.554688 273.941406 183.027344 C 274.816406 182.53125 275.511719 181.851562 276.03125 180.992188 C 276.566406 180.015625 276.8125 178.96875 276.769531 177.855469 Z M 276.769531 177.855469 " fill-opacity="1" fill-rule="nonzero"/><path fill="#a7bab9" d="M 297.640625 215.121094 L 297.640625 161.148438 L 333.902344 161.148438 L 333.902344 172.128906 L 310.210938 172.128906 L 310.210938 182.339844 L 332.613281 182.339844 L 332.613281 192.78125 L 310.210938 192.78125 L 310.210938 203.96875 L 335.277344 203.96875 L 335.277344 215.09375 Z M 297.640625 215.121094 " fill-opacity="1" fill-rule="nonzero"/><path fill="#a7bab9" d="M 379.4375 215.121094 L 357.734375 179.832031 L 357.5 179.832031 L 357.804688 215.121094 L 345.164062 215.121094 L 345.164062 161.148438 L 360.015625 161.148438 L 381.648438 196.363281 L 381.878906 196.363281 L 381.574219 161.148438 L 394.21875 161.148438 L 394.21875 215.109375 Z M 379.4375 215.121094 " fill-opacity="1" fill-rule="nonzero"/><path fill="#a7bab9" d="M 439.628906 215.121094 L 417.914062 179.832031 L 417.664062 179.832031 L 417.964844 215.121094 L 405.324219 215.121094 L 405.324219 161.148438 L 420.207031 161.148438 L 441.839844 196.363281 L 442.070312 196.363281 L 441.765625 161.148438 L 454.40625 161.148438 L 454.40625 215.109375 Z M 439.628906 215.121094 " fill-opacity="1" fill-rule="nonzero"/></svg>